PathFileType	4	(X/Y/Z)	C:/Users/beibeiliu/ov580/test_trc\sequence.1_training_dense_left.trc
DataRate	CameraRate	NumFrames	NumMarkers	Units	OrigDataRate	OrigDataStartFrame	OrigNumFrames
120	120	20	19	mm	120	1	84
Frame#	Time	ThumbCMC			ThumbMCP			ThumbIP			ThumbTip			IndexMCP			IndexPIP			IndexTip			MiddleMCP			MiddlePIP			MiddleTip			RingMCP			RingPIP			RingTip			PinkyMCP			PinkyPIP			PinkyTip			BackHand1			BackHand2			BackHand3	
		X0	Y0	Z0	X1	Y1	Z1	X2	Y2	Z2	X3	Y3	Z3	X4	Y4	Z4	X5	Y5	Z5	X6	Y6	Z6	X7	Y7	Z7	X8	Y8	Z8	X9	Y9	Z9	X10	Y10	Z10	X11	Y11	Z11	X12	Y12	Z12	X13	Y13	Z13	X14	Y14	Z14	X15	Y15	Z15	X16	Y16	Z16	X17	Y17	Z17	X18	Y18	Z18	
0	0	-200.978	77.8608	98.1243	-187.972	67.3107	76.6813	-176.661	63.9599	55.2321	-171.665	58.3784	32.1153	-212.379	84.5857	29.8152	-207.426	75.3829	7.61887	-204.026	56.4937	-15.3717	-232.949	83.6057	23.237	-234.303	75.0932	-1.84517	-235.996	57.3732	-23.2983	-251.363	80.3216	28.2153	-253.942	74.8979	9.0613	-255.38	63.5371	-10.9634	-273.666	73.6692	43.6788	-277.548	69.0871	28.5443	-279.043	63.1766	6.88391	-250.613	93.0085	72.4217	-250.846	95.4251	103.365	-225.633	98.0671	85.956	
1	0.00833333	-205.022	78.7169	95.351	-189.767	69.3481	74.9465	-184.645	65.1279	54.2335	-175.075	59.0172	32.4507	-215.726	85.7169	27.9074	-211.995	74.9244	3.29046	-209.204	56.0876	-15.6163	-235.292	85.1334	20.6205	-236.424	78.325	-0.0127662	-239.214	58.8229	-23.4811	-258.765	82.0231	30.6308	-256.146	75.9086	8.72768	-258.009	62.8265	-15.602	-273.176	75.1885	47.2716	-282.073	68.9118	24.1331	-285.331	65.1286	8.55392	-255.499	92.8148	76.1833	-252.3	97.6891	100.644	-227.31	98.4925	83.9906	
2	0.0166667	-205.922	78.0015	97.5466	-192.338	68.7807	77.8883	-182.075	64.5661	51.4831	-177.644	59.1457	37.0747	-211.49	84.3848	25.151	-213.194	75.2606	6.03605	-206.277	59.0353	-12.3019	-238.745	85.7932	24.4298	-237.918	77.4084	-0.227604	-237.629	61.1034	-22.1094	-254.548	82.5628	32.8332	-257.725	73.9228	5.35661	-260.127	62.7123	-13.6906	-275.968	76.0126	46.939	-282.703	69.4316	27.1927	-284.267	63.8499	9.48986	-256.996	93.5173	76.2534	-252.266	96.0726	100.965	-229.666	98.0835	87.2798	
3	0.025	-201.415	77.7025	93.8296	-191.795	67.6194	75.5954	-182.633	63.1184	54.21	-175.461	57.2567	38.8946	-213.089	82.8079	26.5794	-207.814	72.4912	3.9255	-210.759	58.078	-10.599	-235.097	84.5018	26.6308	-237.117	75.0469	-1.09848	-239.355	59.0563	-21.5619	-253.17	81.1649	31.0392	-257.39	72.9939	7.62795	-256.886	64.4319	-8.70646	-269.851	74.9678	48.3393	-277.463	70.9708	27.3324	-284.048	65.5123	9.9297	-253.737	91.3994	74.2269	-254.599	95.0968	100.77	-226.714	97.3816	85.1493	
4	0.0333333	-204.203	74.9513	98.8368	-188.878	66.0887	75.1698	-178.282	61.0553	56.8375	-171.846	55.238	37.7071	-208.344	82.757	31.0572	-207.466	73.9729	9.23064	-204.047	57.7411	-9.89001	-230.991	83.3544	21.9042	-232.217	72.092	-1.71184	-234.914	59.4069	-19.7656	-255.611	78.4443	33.3039	-254.083	71.6988	7.05112	-256.6	59.8433	-11.1802	-273.757	72.7727	47.9716	-274.103	69.8542	29.345	-282.243	64.2341	10.4865	-252.652	91.7793	75.8581	-247.172	94.8791	100.345	-225.542	94.8717	86.2719	
5	0.0416667	-202.69	75.8144	95.0834	-188.908	66.3784	76.4102	-180.09	61.8896	53.5498	-171.205	54.7293	36.6652	-206.772	83.2156	32.6168	-209.528	71.8916	6.37774	-204.065	58.0957	-9.32961	-234.141	82.5123	23.6415	-232.257	74.2772	0.80897	-237.1	57.8239	-19.5538	-255.321	79.2636	33.699	-256.328	71.8341	7.9903	-257.293	61.9163	-8.18846	-270.83	74.5028	48.1224	-273.494	70.4621	31.5275	-281.101	62.203	12.3186	-248.385	91.9425	79.7289	-248.648	94.0922	102.823	-221.376	95.3161	88.0758	
6	0.05	-198.94	73.8295	95.915	-185.26	63.7182	75.8002	-180.4	57.5863	57.9131	-173.155	52.887	38.1355	-209.746	80.6054	28.1452	-205.045	72.3584	10.4951	-205.459	56.7664	-9.22137	-234.123	80.9799	23.8089	-231.212	74.1315	3.34447	-234.297	56.5171	-21.3669	-249.488	78.5263	36.1526	-254.153	71.7838	11.3091	-252.965	60.7798	-11.8559	-271.984	71.7397	49.1674	-276.086	66.5409	27.5781	-280.433	60.8099	11.0787	-246.107	87.6725	80.7343	-248.916	91.6245	105.287	-223.563	94.5514	90.141	
7	0.0583333	-197.521	70.101	101.609	-184.305	59.6564	79.6813	-175.066	55.9253	54.9685	-168.6	49.3354	38.1953	-207.257	78.8343	30.2918	-203.27	67.4527	7.15458	-205.294	54.522	-8.99671	-230.762	78.5876	25.116	-230.837	71.1781	3.67039	-229.384	52.5602	-22.1224	-247.986	76.1388	35.8756	-255.098	68.8079	12.1101	-254.184	59.4343	-7.20203	-270.784	70.1062	47.8283	-272.889	65.7622	31.7431	-278.457	57.7784	9.35547	-249.937	84.6554	81.9765	-247.113	88.1387	104.554	-218.991	92.138	90.3481	
8	0.0666667	-197.014	67.7584	99.6894	-184.552	58.2219	77.854	-178.483	54.0847	57.7222	-171.447	48.3255	35.3621	-206.159	77.6077	33.7689	-203.702	66.1922	7.32629	-199.381	49.0069	-10.6642	-229	77.8942	29.5271	-232.458	67.9276	1.69629	-231.095	52.5328	-18.9012	-249.071	74.558	35.5269	-253.31	67.9553	13.4813	-249.744	57.2971	-8.69029	-268.757	68.0196	53.4894	-271.677	64.704	34.0848	-278.626	58.3535	12.8073	-246.161	82.6603	81.2927	-246.571	85.4996	108.62	-219.711	87.857	92.356	
9	0.075	-199.191	68.9383	101.84	-180.791	59.1886	79.0153	-173.573	55.2009	60.0243	-173.031	48.8018	39.9981	-204.994	78.1385	33.1655	-205.995	69.8082	11.9483	-202.909	52.9374	-8.63481	-227.708	79.0332	27.6011	-228.3	70.8861	3.83044	-230.426	54.8271	-17.1486	-246.123	76.6959	34.7233	-254.313	70.338	15.5161	-251.589	58.8399	-6.19592	-264.258	69.8477	53.6242	-273.5	64.9886	32.5041	-276.856	60.0006	14.1821	-248.957	84.4706	82.5842	-246.287	87.9531	105.156	-218.766	89.6927	93.6491	
10	0.0833333	-196.664	72.6992	99.8596	-182.788	62.4039	79.572	-175.585	57.7378	57.7668	-169.879	52.0829	37.1934	-206.951	80.2664	32.1664	-202.748	71.4063	11.3786	-203.195	53.36	-9.53252	-228.584	82.037	26.1312	-228.6	74.1545	5.09178	-233.681	57.9979	-16.9185	-251.893	78.2285	37.4294	-253.519	73.3503	15.1867	-251.132	62.4389	-7.95909	-264.314	72.9882	53.1958	-272.899	69.3619	32.6711	-276.694	63.0727	14.6489	-248.308	87.6173	82.9571	-245.115	89.9023	104.215	-220.414	93.4493	92.5449	
11	0.0916667	-199.736	72.5972	102.325	-179.916	63.2373	81.1216	-173.281	59.2559	59.2154	-172.303	53.8489	39.6556	-204.79	81.8484	31.7617	-202.239	71.4402	9.38336	-202.577	57.2325	-6.77724	-227.876	83.8474	29.111	-230.383	75.3216	3.08451	-231.358	57.6405	-20.1191	-249.614	80.1871	39.125	-249.568	75.3199	15.5004	-252.662	65.6759	-4.80578	-264.351	75.6606	47.8607	-270.067	71.2878	34.1971	-278.922	63.7292	13.3905	-247.584	91.1765	80.9372	-246.935	92.8562	106.187	-216.863	93.3039	90.7196	
12	0.1	-200.083	74.174	98.6421	-186.026	62.7563	79.9421	-173.511	57.9269	59.338	-168.609	53.281	39.6944	-204.329	81.158	31.0826	-200.639	71.3015	10.5129	-201.32	56.7837	-5.56175	-226.339	82.8201	27.4763	-229.903	73.3331	2.37748	-232.451	59.227	-16.9997	-251.403	79.7575	38.0053	-248.536	73.8916	12.5567	-251.258	63.6112	-5.95761	-266.76	73.4584	53.4978	-271.615	70.1252	35.5099	-276.969	63.8158	12.0038	-243.555	88.4131	79.7056	-244.493	91.4041	108.64	-219.387	92.4139	93.3872	
13	0.108333	-198.795	71.1307	103.005	-182.019	62.0402	79.5377	-174.477	58.2124	57.7703	-170.263	51.8127	38.5203	-209.063	80.6103	35.0033	-204.298	72.1484	12.9969	-202.505	52.456	-7.68254	-228.862	81.9731	26.4711	-228.712	72.4316	3.3102	-230.414	58.1003	-15.9672	-249.356	78.5633	36.2151	-250.938	72.6938	16.8301	-250.631	62.55	-3.89734	-265.352	73.6915	49.0912	-273.48	67.1282	30.9555	-275.468	62.7029	12.7419	-245.209	86.7347	80.4405	-245.122	91.8371	106.725	-220.023	93.6613	95.9559	
14	0.116667	-197.511	72.0798	102.55	-183.38	61.6704	82.9777	-174.581	57.2076	60.4737	-172.377	52.2143	40.297	-209.533	79.5759	32.2069	-206.367	70.2306	11.8565	-203.127	51.9485	-6.52801	-228.215	80.8763	30.0229	-228.545	72.0613	4.92218	-232.407	52.8799	-19.1692	-249.392	77.3691	37.3487	-251.8	71.0858	14.6921	-250.183	61.4128	-3.057	-269.892	71.4383	50.5577	-273.838	67.9136	35.6918	-278.946	61.491	11.6136	-249.885	86.8013	83.6738	-244.951	88.3282	106.333	-222.005	92.2263	93.2909	
15	0.125	-197.672	71.1903	101.481	-184.469	61.5519	79.2512	-174.756	58.2037	55.5584	-170.448	50.5509	40.9621	-206.988	79.8033	33.487	-202.155	69.9904	11.1989	-204.365	50.9461	-9.74818	-231.351	80.8416	30.5552	-228.004	70.8803	1.85064	-231.125	55.962	-17.4602	-250.615	76.975	38.8257	-250.408	70.6882	16.0553	-252.319	60.1272	-4.21081	-269.89	70.8449	51.8521	-271.815	67.4817	33.7826	-275.694	62.4588	12.3052	-247.06	85.5462	80.4069	-245.172	88.6947	106.81	-219.698	93.7609	90.3468	
16	0.133333	-196.926	70.5645	102.589	-182.272	60.9285	76.4902	-176.086	56.3725	57.959	-171.062	50.8414	35.9892	-207.98	78.9356	34.9536	-206.048	66.7839	8.98939	-203.714	51.9852	-8.26817	-232.519	78.6194	31.5143	-232.443	70.2301	3.56741	-232.923	54.8439	-17.221	-247.345	75.3114	36.6225	-252.898	69.2228	13.2554	-252.614	58.0275	-8.67862	-268.256	69.1593	50.0622	-272.264	66.0689	34.2335	-275.879	60.7468	14.6112	-247.555	84.8126	84.3428	-244.247	89.1854	104.667	-221.479	92.1533	89.4445	
17	0.141667	-196.208	70.2353	99.9968	-184.816	59.0091	80.6948	-176.498	54.705	59.1273	-169.896	49.0032	37.7774	-205.467	78.3989	34.8562	-206.541	66.3571	8.32737	-203.88	51.1859	-8.06114	-231.555	78.0659	26.0705	-230.171	69.7469	3.72393	-233.916	50.3435	-20.4793	-251.305	75.1194	35.8207	-253.734	69.787	15.036	-248.756	58.1939	-7.31341	-266.48	69.3812	51.6727	-274.807	64.6612	31.373	-276.903	60.4467	15.8443	-246.28	85.1342	80.595	-247.131	87.7878	103.682	-223.438	90.7412	90.5794	
18	0.15	-196.684	70.5842	98.4192	-186.619	59.6368	80.7261	-175.597	54.871	55.095	-174.616	49.522	37.9581	-207.792	77.2339	34.9526	-204.937	67.8328	9.36354	-206.273	50.6129	-9.05754	-231.188	78.7182	28.6755	-234.037	67.5198	0.139213	-235.123	53.4824	-17.1641	-251.399	74.7368	37.5062	-255.841	68.1286	12.4468	-252.762	57.076	-9.92582	-268.368	68.1246	51.5014	-273.342	64.469	29.8404	-276.101	60.5275	14.2179	-246.193	83.9866	81.9531	-248.086	88.5775	106.286	-224.775	88.0864	91.2034	
19	0.158333	-199.573	69.6268	99.3303	-182.735	59.9497	79.6936	-176.723	55.5397	57.7825	-170.589	49.448	38.4717	-209.852	77.8729	30.0003	-206.054	69.1643	11.4206	-205.363	50.4727	-8.4685	-232.069	78.4894	25.2897	-229.045	69.1061	2.27922	-233.679	52.7149	-17.5344	-253.7	74.0942	33.7072	-253.198	68.4725	14.8411	-252.114	57.407	-8.97437	-269.68	68.1416	53.2361	-275.598	64.6451	33.8552	-279.518	58.3394	14.528	-247.647	86.1198	79.3289	-246.272	85.637	107.931	-219.449	89.714	92.1254	
